<?xml version="1.0" encoding="utf-8"?>
<!-- Generator: Adobe Illustrator 23.0.1, SVG Export Plug-In . SVG Version: 6.00 Build 0)  -->
<svg version="1.1" id="Camada_1" xmlns="http://www.w3.org/2000/svg" xmlns:xlink="http://www.w3.org/1999/xlink" x="0px" y="0px"
	 viewBox="0 0 200 200" style="enable-background:new 0 0 200 200;" xml:space="preserve">
<style type="text/css">
	.st0{fill:#E79A6E;}
	.st1{fill:#FBBC90;}
	.st2{fill:#EAEAEA;}
	.st3{fill:#FFD9C0;}
	.st4{fill:#3E3E3E;}
	.st5{fill:#49494B;}
</style>
<g>
	<g>
		<path class="st0" d="M63.12,96.64c-1.67,2.06-4.7,2.38-6.77,0.71l-5.93-4.81c-2.06-1.67-2.38-4.7-0.71-6.77l0,0
			c1.67-2.06,4.7-2.38,6.77-0.71l6.22,6.88C64.76,93.62,64.79,94.57,63.12,96.64L63.12,96.64z"/>
		<path class="st0" d="M57.76,107.31c-1.96,1.62-4.86,1.34-6.48-0.62l-4.65-5.63c-1.62-1.96-1.34-4.86,0.62-6.48l0,0
			c1.96-1.62,4.86-1.34,6.48,0.62l4.52,7.63C59.88,104.79,59.72,105.69,57.76,107.31L57.76,107.31z"/>
		<path class="st0" d="M53.9,114.46c-1.8,1.26-4.29,0.83-5.55-0.97l-3.63-5.18c-1.26-1.8-0.83-4.29,0.97-5.55l0,0
			c1.8-1.26,4.29-0.83,5.55,0.97l3.39,6.9C55.9,112.43,55.71,113.19,53.9,114.46L53.9,114.46z"/>
		<path class="st0" d="M29.7,92.93c0,0,17.06,2.52,18.64,2.82c1.58,0.3,10.76-9.56,6.76-12.94C48.22,77.01,29.7,92.93,29.7,92.93z"
			/>
		<path class="st0" d="M29.55,90.86c0,0,17.06,2.52,18.64,2.82c1.58,0.3-18.71,22.4-20.32,13.54S29.55,90.86,29.55,90.86z"/>
		<path class="st1" d="M66.79,88.52c-1.61,2.11-4.63,2.52-6.74,0.91l-6.07-4.62c-2.11-1.61-2.52-4.63-0.91-6.74l0,0
			c1.61-2.11,4.63-2.52,6.74-0.92l6.43,6.69C68.34,85.45,68.4,86.4,66.79,88.52L66.79,88.52z"/>
		<path class="st1" d="M61.47,81.16c-0.18,2.65-2.47,4.66-5.12,4.48l-14.77-1.23c-2.65-0.18-4.66-2.47-4.48-5.12l0,0
			c0.18-2.65,2.47-4.66,5.12-4.48c0,0,7.49,0.97,14.77,1.23C59.65,76.14,61.65,78.51,61.47,81.16L61.47,81.16z"/>
		<path class="st1" d="M46.89,77.38c1.91,2.71,1.86,5.08-0.44,7.47c-2.58,2.68-5.03,5.2-8.29,5.78c-1.9,6.47-8.14,8.29-8.14,8.29
			c-2.71,1.91-7.34-0.59-9.26-3.3l0,0c-1.91-2.71-1.26-6.46,1.45-8.37c0,0,7.83-4.68,16.3-11.32
			C41.13,73.87,44.98,74.66,46.89,77.38L46.89,77.38z"/>
		<path class="st0" d="M59.6,78.23l-0.05-0.02c-1.61-0.8-3.44-0.92-5.14-0.34c-1.7,0.58-3.08,1.78-3.87,3.39l-1.88,3.75l6.25,0.52
			l5.13,3.9c0.36,0.27,0.74,0.48,1.13,0.64l1.43-2.86C64.24,83.91,62.89,79.88,59.6,78.23z"/>
		<path class="st1" d="M25.46,87.58c4.02,0.27,6.26,7.17,8.98,8.8c8.73,5.23,3.81,23.84,3.81,23.84c1.03,6.45-2.68,14.75-9.27,18.2
			l0,0c-7.79,4.08-14.64-0.79-14.02-10.07l2.55-34.78c0.24-3.74,2.27-5.01,4.88-6.39L25.46,87.58z"/>
	</g>
	<g>
		<path class="st0" d="M138.22,96.64c1.67,2.06,4.7,2.38,6.77,0.71l5.93-4.81c2.06-1.67,2.38-4.7,0.71-6.77l0,0
			c-1.67-2.06-4.7-2.38-6.77-0.71l-6.22,6.88C136.57,93.62,136.54,94.57,138.22,96.64L138.22,96.64z"/>
		<path class="st0" d="M143.57,107.31c1.96,1.62,4.86,1.34,6.48-0.62l4.65-5.63c1.62-1.96,1.34-4.86-0.62-6.48l0,0
			c-1.96-1.62-4.86-1.34-6.48,0.62l-4.52,7.63C141.46,104.79,141.61,105.69,143.57,107.31L143.57,107.31z"/>
		<path class="st0" d="M147.43,114.46c1.8,1.26,4.29,0.83,5.55-0.97l3.63-5.18c1.26-1.8,0.83-4.29-0.98-5.55l0,0
			c-1.8-1.26-4.29-0.83-5.55,0.97l-3.39,6.9C145.43,112.43,145.63,113.19,147.43,114.46L147.43,114.46z"/>
		<path class="st0" d="M171.64,92.93c0,0-17.06,2.52-18.64,2.82c-1.58,0.3-10.76-9.56-6.76-12.94
			C153.11,77.01,171.64,92.93,171.64,92.93z"/>
		<path class="st0" d="M171.78,90.86c0,0-17.06,2.52-18.64,2.82c-1.58,0.3,18.71,22.4,20.32,13.54
			C175.07,98.37,171.78,90.86,171.78,90.86z"/>
		<path class="st1" d="M134.55,88.52c1.61,2.11,4.63,2.52,6.74,0.91l6.07-4.62c2.11-1.61,2.52-4.63,0.92-6.74l0,0
			c-1.61-2.11-4.63-2.52-6.74-0.92l-6.43,6.69C132.99,85.45,132.94,86.4,134.55,88.52L134.55,88.52z"/>
		<path class="st1" d="M139.86,81.16c0.18,2.65,2.47,4.66,5.12,4.48l14.77-1.23c2.65-0.18,4.66-2.47,4.48-5.12l0,0
			c-0.18-2.65-2.47-4.66-5.12-4.48c0,0-7.49,0.97-14.77,1.23C141.69,76.14,139.68,78.51,139.86,81.16L139.86,81.16z"/>
		<path class="st1" d="M154.44,77.38c-1.91,2.71-1.86,5.08,0.44,7.47c2.58,2.68,5.03,5.2,8.29,5.78c1.9,6.47,8.14,8.29,8.14,8.29
			c2.71,1.91,7.35-0.59,9.26-3.3l0,0c1.91-2.71,1.26-6.46-1.45-8.37c0,0-7.83-4.68-16.3-11.32
			C160.2,73.87,156.35,74.66,154.44,77.38L154.44,77.38z"/>
		<path class="st0" d="M141.73,78.23l0.05-0.02c1.61-0.8,3.44-0.92,5.14-0.34c1.7,0.58,3.08,1.78,3.87,3.39l1.88,3.75l-6.25,0.52
			l-5.13,3.9c-0.36,0.27-0.74,0.48-1.13,0.64l-1.43-2.86C137.1,83.91,138.44,79.88,141.73,78.23z"/>
		<path class="st1" d="M175.88,87.58c-4.02,0.27-6.26,7.17-8.98,8.8c-8.73,5.23-3.81,23.84-3.81,23.84
			c-1.03,6.45,2.68,14.75,9.27,18.2l0,0c7.79,4.08,14.64-0.79,14.02-10.07l-2.55-34.78c-0.24-3.74-2.27-5.01-4.88-6.39L175.88,87.58
			z"/>
	</g>
	<polygon class="st2" points="147.36,143.4 54.66,139.54 50.02,4.35 152,1.22 	"/>
	<g>
		<path class="st1" d="M150.88,114.95l-5.69-16.82l-5.67-11.31c-1.43-2.89-0.24-6.4,2.65-7.82c2.89-1.43,6.4-0.24,7.82,2.65
			l4.76,9.5l11.04,16.44c1.9,3.17-0.01,7.67-4.41,9.84C156.98,119.6,152.24,118.39,150.88,114.95z"/>
		<path class="st3" d="M148.15,80.53c-1.29-2.13-8.53,2.02-7.61,4l0.88,1.68c0.73,1.48,2.21,2.4,3.86,2.4c0.66,0,1.3-0.15,1.9-0.45
			c2.12-1.05,3-3.63,1.96-5.74L148.15,80.53z"/>
		<path class="st1" d="M151.99,124c3.01,15.82,19.62,20.09,28.24,15.75c8.62-4.34,5.69-15.09,4.99-28.93
			c-0.39-7.67-11.66,5.38-23.68-9.56c-6.21,0.23-10.3,2.55-13.84,4.34C147.71,105.6,149.5,110.93,151.99,124z"/>
		<path class="st1" d="M186.03,132.9c-1.42,10.9,0.18,16.27,0.18,22.13l-19.18,5.75c0,0,2.43-11.96-8.37-24.77
			C175.11,130.32,186.03,132.9,186.03,132.9z"/>
		<rect x="165.05" y="148.81" class="st2" width="22.35" height="7.38"/>
		<rect x="161.45" y="155.06" class="st4" width="29.55" height="45.83"/>
		<polygon class="st5" points="191,200.89 183.87,161.52 161.45,155.06 191,155.06 		"/>
	</g>
	<g>
		<path class="st1" d="M50.46,114.95l5.69-16.82l5.67-11.31c1.43-2.89,0.24-6.4-2.65-7.82c-2.89-1.43-6.4-0.24-7.82,2.65l-4.76,9.5
			l-11.04,16.44c-1.9,3.17,0.01,7.67,4.41,9.84C44.35,119.6,49.1,118.39,50.46,114.95z"/>
		<path class="st3" d="M53.19,80.53c1.29-2.13,8.53,2.02,7.61,4l-0.88,1.68c-0.73,1.48-2.21,2.4-3.86,2.4c-0.66,0-1.3-0.15-1.9-0.45
			c-2.12-1.05-3-3.63-1.96-5.74L53.19,80.53z"/>
		<path class="st1" d="M49.34,124c-3.01,15.82-19.62,20.09-28.24,15.75c-8.62-4.34-5.69-15.09-4.99-28.93
			c0.39-7.67,11.66,5.38,23.68-9.56c6.21,0.23,10.3,2.55,13.84,4.34C53.62,105.6,51.83,110.93,49.34,124z"/>
		<path class="st1" d="M15.31,132.9c1.42,10.9-0.18,16.27-0.18,22.13l19.18,5.75c0,0-2.43-11.96,8.37-24.77
			C26.22,130.32,15.31,132.9,15.31,132.9z"/>
		<rect x="13.93" y="148.81" class="st2" width="22.35" height="7.38"/>
		<rect x="10.33" y="155.06" class="st4" width="29.55" height="45.83"/>
		<polygon class="st5" points="10.33,200.89 17.46,161.52 39.88,155.06 10.33,155.06 		"/>
	</g>
</g>
</svg>
